<?xml version="1.0"?>
<svg xmlns="http://www.w3.org/2000/svg" xmlns:xlink="http://www.w3.org/1999/xlink" xmlns:svgjs="http://svgjs.com/svgjs" version="1.1" width="512" height="512" x="0" y="0" viewBox="0 0 512 512" style="enable-background:new 0 0 512 512" xml:space="preserve" class=""><g><link type="text/css" rel="stylesheet" id="dark-mode-custom-link"/><link type="text/css" rel="stylesheet" id="dark-mode-general-link"/><style lang="en" type="text/css" id="dark-mode-custom-style"/><style lang="en" type="text/css" id="dark-mode-native-style"/><path xmlns="http://www.w3.org/2000/svg" d="m512 214.636719-214.632812-214.636719-221.441407 221.4375-53.339843 53.339844c-14.519532 14.523437-22.5195318 33.832031-22.5195318 54.371094 0 20.539062 7.9999998 39.847656 22.5195318 54.371093l63.414062 63.414063h-86v29.972656h511.589844v-29.972656h-231.886719zm-214.632812-172.242188 172.242187 172.242188-179.046875 179.042969-172.242188-172.242188zm-168.972657 404.539063-84.609375-84.609375c-8.863281-8.863281-13.742187-20.644531-13.742187-33.175781s4.878906-24.3125 13.742187-33.175782l53.335938-53.335937 172.246094 172.242187-32.054688 32.054688zm0 0" fill="#ffffff" data-original="#000000" style="" class=""/></g></svg>
